<?xml version="1.0" encoding="UTF-8" standalone="no"?>
<!DOCTYPE svg PUBLIC "-//W3C//DTD SVG 1.1//EN" "http://www.w3.org/Graphics/SVG/1.1/DTD/svg11.dtd">
<svg width="100%" height="100%" viewBox="0 0 800 600" version="1.1" xmlns="http://www.w3.org/2000/svg" xmlns:xlink="http://www.w3.org/1999/xlink" xml:space="preserve" xmlns:serif="http://www.serif.com/" style="fill-rule:evenodd;clip-rule:evenodd;stroke-linejoin:round;stroke-miterlimit:2;">
    <g>
        <g transform="matrix(-8.66118,-58.3608,58.3608,-8.66118,657.192,298.206)">
            <path d="M1.028,-0.702L0.845,-0L0.638,-0L0.526,-0.462L0.41,-0L0.203,-0L0.025,-0.702L0.208,-0.702L0.309,-0.191L0.434,-0.702L0.622,-0.702L0.742,-0.191L0.844,-0.702L1.028,-0.702Z" style="fill-rule:nonzero;"/>
        </g>
        <g transform="matrix(-20.8642,-55.1877,55.1877,-20.8642,646.505,237.029)">
            <path d="M0.233,-0.565L0.233,-0.423L0.462,-0.423L0.462,-0.291L0.233,-0.291L0.233,-0.137L0.492,-0.137L0.492,-0L0.062,-0L0.062,-0.702L0.492,-0.702L0.492,-0.565L0.233,-0.565Z" style="fill-rule:nonzero;"/>
        </g>
        <g transform="matrix(-29.2579,-51.2345,51.2345,-29.2579,635.509,206.978)">
            <path d="M0.487,-0.36C0.528,-0.351 0.56,-0.331 0.585,-0.3C0.61,-0.268 0.622,-0.232 0.622,-0.191C0.622,-0.132 0.602,-0.086 0.561,-0.051C0.52,-0.017 0.462,-0 0.389,-0L0.062,-0L0.062,-0.702L0.378,-0.702C0.449,-0.702 0.505,-0.686 0.546,-0.653C0.586,-0.62 0.606,-0.576 0.606,-0.52C0.606,-0.479 0.595,-0.444 0.574,-0.417C0.552,-0.39 0.523,-0.371 0.487,-0.36ZM0.233,-0.418L0.345,-0.418C0.373,-0.418 0.395,-0.424 0.409,-0.437C0.425,-0.449 0.432,-0.467 0.432,-0.491C0.432,-0.515 0.425,-0.533 0.409,-0.546C0.395,-0.559 0.373,-0.565 0.345,-0.565L0.233,-0.565L0.233,-0.418ZM0.359,-0.138C0.388,-0.138 0.41,-0.145 0.426,-0.158C0.441,-0.171 0.449,-0.189 0.449,-0.214C0.449,-0.239 0.441,-0.258 0.425,-0.272C0.408,-0.286 0.386,-0.293 0.357,-0.293L0.233,-0.293L0.233,-0.138L0.359,-0.138Z" style="fill-rule:nonzero;"/>
        </g>
        <g transform="matrix(-39.9728,-43.3956,43.3956,-39.9728,609.018,162.774)">
            <path d="M0.325,-0.702C0.399,-0.702 0.464,-0.687 0.519,-0.658C0.574,-0.629 0.617,-0.588 0.648,-0.535C0.678,-0.482 0.693,-0.42 0.693,-0.351C0.693,-0.282 0.678,-0.221 0.648,-0.168C0.617,-0.115 0.574,-0.073 0.519,-0.044C0.463,-0.015 0.398,-0 0.325,-0L0.062,-0L0.062,-0.702L0.325,-0.702ZM0.314,-0.148C0.379,-0.148 0.429,-0.166 0.465,-0.201C0.501,-0.236 0.519,-0.286 0.519,-0.351C0.519,-0.416 0.501,-0.466 0.465,-0.502C0.429,-0.538 0.379,-0.556 0.314,-0.556L0.233,-0.556L0.233,-0.148L0.314,-0.148Z" style="fill-rule:nonzero;"/>
        </g>
        <g transform="matrix(-45.9577,-36.9985,36.9985,-45.9577,579.732,131.47)">
            <path d="M0.233,-0.565L0.233,-0.423L0.462,-0.423L0.462,-0.291L0.233,-0.291L0.233,-0.137L0.492,-0.137L0.492,-0L0.062,-0L0.062,-0.702L0.492,-0.702L0.492,-0.565L0.233,-0.565Z" style="fill-rule:nonzero;"/>
        </g>
        <g transform="matrix(-50.8326,-29.9508,29.9508,-50.8326,554.997,111.03)">
            <path d="M0.721,-0.702L0.472,-0L0.258,-0L0.009,-0.702L0.191,-0.702L0.365,-0.172L0.54,-0.702L0.721,-0.702Z" style="fill-rule:nonzero;"/>
        </g>
        <g transform="matrix(-54.6222,-22.3028,22.3028,-54.6222,517.653,89.4782)">
            <path d="M0.233,-0.565L0.233,-0.423L0.462,-0.423L0.462,-0.291L0.233,-0.291L0.233,-0.137L0.492,-0.137L0.492,-0L0.062,-0L0.062,-0.702L0.492,-0.702L0.492,-0.565L0.233,-0.565Z" style="fill-rule:nonzero;"/>
        </g>
        <g transform="matrix(-56.8351,-15.8358,15.8358,-56.8351,488.113,77.4366)">
            <path d="M0.233,-0.132L0.457,-0.132L0.457,-0L0.062,-0L0.062,-0.702L0.233,-0.702L0.233,-0.132Z" style="fill-rule:nonzero;"/>
        </g>
        <g transform="matrix(-58.4355,-8.14168,8.14168,-58.4355,461.089,69.2039)">
            <path d="M0.394,0.007C0.328,0.007 0.268,-0.008 0.213,-0.039C0.158,-0.07 0.114,-0.113 0.082,-0.168C0.049,-0.223 0.033,-0.284 0.033,-0.353C0.033,-0.422 0.049,-0.483 0.082,-0.538C0.114,-0.593 0.158,-0.635 0.213,-0.666C0.268,-0.697 0.328,-0.712 0.394,-0.712C0.46,-0.712 0.521,-0.697 0.576,-0.666C0.63,-0.635 0.674,-0.593 0.706,-0.538C0.737,-0.483 0.753,-0.422 0.753,-0.353C0.753,-0.284 0.737,-0.223 0.705,-0.168C0.673,-0.113 0.63,-0.07 0.575,-0.039C0.52,-0.008 0.46,0.007 0.394,0.007ZM0.394,-0.149C0.45,-0.149 0.495,-0.168 0.529,-0.205C0.562,-0.242 0.579,-0.292 0.579,-0.353C0.579,-0.415 0.562,-0.465 0.529,-0.501C0.495,-0.539 0.45,-0.557 0.394,-0.557C0.337,-0.557 0.292,-0.539 0.259,-0.502C0.225,-0.465 0.208,-0.416 0.208,-0.353C0.208,-0.291 0.225,-0.242 0.259,-0.204C0.292,-0.168 0.337,-0.149 0.394,-0.149Z" style="fill-rule:nonzero;"/>
        </g>
        <g transform="matrix(-58.9926,0.933037,-0.933037,-58.9926,415.014,63.1006)">
            <path d="M0.597,-0.476C0.597,-0.435 0.588,-0.398 0.569,-0.365C0.55,-0.331 0.522,-0.304 0.483,-0.283C0.444,-0.262 0.396,-0.252 0.339,-0.252L0.233,-0.252L0.233,-0L0.062,-0L0.062,-0.702L0.339,-0.702C0.395,-0.702 0.442,-0.692 0.481,-0.673C0.52,-0.654 0.549,-0.627 0.568,-0.593C0.587,-0.559 0.597,-0.52 0.597,-0.476ZM0.326,-0.388C0.359,-0.388 0.383,-0.396 0.399,-0.411C0.415,-0.426 0.423,-0.448 0.423,-0.476C0.423,-0.504 0.415,-0.526 0.399,-0.541C0.383,-0.556 0.359,-0.564 0.326,-0.564L0.233,-0.564L0.233,-0.388L0.326,-0.388Z" style="fill-rule:nonzero;"/>
        </g>
        <g transform="matrix(-58.4385,8.12028,-8.12028,-58.4385,378.163,63.7412)">
            <path d="M0.233,-0.565L0.233,-0.423L0.462,-0.423L0.462,-0.291L0.233,-0.291L0.233,-0.137L0.492,-0.137L0.492,-0L0.062,-0L0.062,-0.702L0.492,-0.702L0.492,-0.565L0.233,-0.565Z" style="fill-rule:nonzero;"/>
        </g>
        <g transform="matrix(-56.8753,15.6908,-15.6908,-56.8753,346.489,67.8491)">
            <path d="M0.42,-0L0.274,-0.265L0.233,-0.265L0.233,-0L0.062,-0L0.062,-0.702L0.349,-0.702C0.404,-0.702 0.452,-0.692 0.491,-0.673C0.53,-0.654 0.559,-0.627 0.578,-0.594C0.597,-0.56 0.607,-0.522 0.607,-0.481C0.607,-0.434 0.594,-0.393 0.568,-0.356C0.541,-0.319 0.502,-0.293 0.451,-0.278L0.613,-0L0.42,-0ZM0.233,-0.386L0.339,-0.386C0.37,-0.386 0.394,-0.394 0.409,-0.409C0.425,-0.424 0.433,-0.446 0.433,-0.474C0.433,-0.501 0.425,-0.522 0.409,-0.537C0.394,-0.552 0.37,-0.56 0.339,-0.56L0.233,-0.56L0.233,-0.386Z" style="fill-rule:nonzero;"/>
        </g>
        <g transform="matrix(-46.6294,36.1483,-36.1483,-46.6294,253.101,105.583)">
            <path d="M0.23,-0.702L0.23,-0.282C0.23,-0.24 0.24,-0.208 0.261,-0.185C0.282,-0.162 0.312,-0.151 0.352,-0.151C0.392,-0.151 0.423,-0.162 0.444,-0.185C0.465,-0.208 0.476,-0.24 0.476,-0.282L0.476,-0.702L0.647,-0.702L0.647,-0.283C0.647,-0.22 0.634,-0.167 0.607,-0.124C0.58,-0.081 0.545,-0.048 0.5,-0.026C0.455,-0.004 0.404,0.007 0.349,0.007C0.294,0.007 0.244,-0.004 0.201,-0.025C0.157,-0.047 0.122,-0.08 0.097,-0.124C0.072,-0.167 0.059,-0.22 0.059,-0.283L0.059,-0.702L0.23,-0.702Z" style="fill-rule:nonzero;"/>
        </g>
        <g transform="matrix(-42.0524,41.3835,-41.3835,-42.0524,220.645,131.637)">
            <rect x="0.062" y="-0.702" width="0.171" height="0.702" style="fill-rule:nonzero;"/>
        </g>
        <g transform="matrix(-38.1538,45.0032,-45.0032,-38.1538,208.098,143.684)">
            <path d="M0.443,-0.95L0.175,0.187L0.01,0.187L0.278,-0.95L0.443,-0.95Z" style="fill-rule:nonzero;"/>
        </g>
        <g transform="matrix(-31.2863,50.0217,-50.0217,-31.2863,190.308,163.825)">
            <path d="M0.23,-0.702L0.23,-0.282C0.23,-0.24 0.24,-0.208 0.261,-0.185C0.282,-0.162 0.312,-0.151 0.352,-0.151C0.392,-0.151 0.423,-0.162 0.444,-0.185C0.465,-0.208 0.476,-0.24 0.476,-0.282L0.476,-0.702L0.647,-0.702L0.647,-0.283C0.647,-0.22 0.634,-0.167 0.607,-0.124C0.58,-0.081 0.545,-0.048 0.5,-0.026C0.455,-0.004 0.404,0.007 0.349,0.007C0.294,0.007 0.244,-0.004 0.201,-0.025C0.157,-0.047 0.122,-0.08 0.097,-0.124C0.072,-0.167 0.059,-0.22 0.059,-0.283L0.059,-0.702L0.23,-0.702Z" style="fill-rule:nonzero;"/>
        </g>
        <g transform="matrix(-21.65,54.8842,-54.8842,-21.65,168.166,199.139)">
            <path d="M0.492,-0L0.349,-0.215L0.223,-0L0.029,-0L0.254,-0.357L0.024,-0.702L0.223,-0.702L0.364,-0.49L0.488,-0.702L0.682,-0.702L0.459,-0.348L0.691,-0L0.492,-0Z" style="fill-rule:nonzero;"/>
        </g>
        <g transform="matrix(-7.24877,58.553,-58.553,-7.24877,149.387,250.648)">
            <path d="M0.325,-0.702C0.399,-0.702 0.464,-0.687 0.519,-0.658C0.574,-0.629 0.617,-0.588 0.648,-0.535C0.678,-0.482 0.693,-0.42 0.693,-0.351C0.693,-0.282 0.678,-0.221 0.648,-0.168C0.617,-0.115 0.574,-0.073 0.519,-0.044C0.463,-0.015 0.398,-0 0.325,-0L0.062,-0L0.062,-0.702L0.325,-0.702ZM0.314,-0.148C0.379,-0.148 0.429,-0.166 0.465,-0.201C0.501,-0.236 0.519,-0.286 0.519,-0.351C0.519,-0.416 0.501,-0.466 0.465,-0.502C0.429,-0.538 0.379,-0.556 0.314,-0.556L0.233,-0.556L0.233,-0.148L0.314,-0.148Z" style="fill-rule:nonzero;"/>
        </g>
        <g transform="matrix(2.56922,58.944,-58.944,2.56922,144.474,293.382)">
            <path d="M0.233,-0.565L0.233,-0.423L0.462,-0.423L0.462,-0.291L0.233,-0.291L0.233,-0.137L0.492,-0.137L0.492,-0L0.062,-0L0.062,-0.702L0.492,-0.702L0.492,-0.565L0.233,-0.565Z" style="fill-rule:nonzero;"/>
        </g>
        <g transform="matrix(11.507,57.867,-57.867,11.507,145.677,325.372)">
            <path d="M0.316,0.007C0.265,0.007 0.219,-0.001 0.178,-0.018C0.137,-0.035 0.105,-0.059 0.081,-0.092C0.056,-0.125 0.043,-0.164 0.042,-0.21L0.224,-0.21C0.227,-0.184 0.236,-0.164 0.251,-0.151C0.266,-0.137 0.286,-0.13 0.311,-0.13C0.336,-0.13 0.356,-0.136 0.371,-0.148C0.386,-0.159 0.393,-0.175 0.393,-0.196C0.393,-0.213 0.387,-0.228 0.376,-0.239C0.364,-0.25 0.349,-0.26 0.333,-0.267C0.316,-0.274 0.291,-0.283 0.26,-0.292C0.215,-0.306 0.178,-0.32 0.149,-0.334C0.12,-0.348 0.096,-0.369 0.075,-0.396C0.054,-0.423 0.044,-0.459 0.044,-0.503C0.044,-0.568 0.068,-0.62 0.115,-0.657C0.162,-0.694 0.224,-0.712 0.3,-0.712C0.377,-0.712 0.44,-0.694 0.487,-0.657C0.534,-0.62 0.56,-0.568 0.563,-0.502L0.378,-0.502C0.377,-0.525 0.368,-0.543 0.353,-0.556C0.338,-0.569 0.318,-0.575 0.294,-0.575C0.273,-0.575 0.257,-0.57 0.244,-0.559C0.231,-0.548 0.225,-0.532 0.225,-0.511C0.225,-0.488 0.236,-0.471 0.257,-0.458C0.278,-0.445 0.312,-0.432 0.357,-0.417C0.402,-0.402 0.439,-0.387 0.468,-0.373C0.496,-0.359 0.52,-0.339 0.541,-0.312C0.562,-0.285 0.572,-0.251 0.572,-0.209C0.572,-0.169 0.562,-0.133 0.542,-0.1C0.521,-0.067 0.492,-0.041 0.453,-0.022C0.414,-0.003 0.369,0.007 0.316,0.007Z" style="fill-rule:nonzero;"/>
        </g>
        <g transform="matrix(18.4214,56.0504,-56.0504,18.4214,153.298,360.762)">
            <rect x="0.062" y="-0.702" width="0.171" height="0.702" style="fill-rule:nonzero;"/>
        </g>
        <g transform="matrix(26.0069,52.9589,-52.9589,26.0069,157.889,377.738)">
            <path d="M0.528,-0.48C0.515,-0.503 0.497,-0.521 0.473,-0.534C0.45,-0.546 0.422,-0.552 0.39,-0.552C0.335,-0.552 0.29,-0.534 0.257,-0.498C0.224,-0.461 0.207,-0.413 0.207,-0.352C0.207,-0.287 0.225,-0.237 0.26,-0.201C0.295,-0.164 0.343,-0.146 0.404,-0.146C0.446,-0.146 0.482,-0.157 0.51,-0.178C0.54,-0.199 0.561,-0.23 0.574,-0.27L0.357,-0.27L0.357,-0.396L0.729,-0.396L0.729,-0.237C0.716,-0.194 0.695,-0.155 0.665,-0.118C0.634,-0.081 0.596,-0.052 0.549,-0.029C0.502,-0.006 0.45,0.005 0.391,0.005C0.322,0.005 0.26,-0.01 0.205,-0.041C0.151,-0.071 0.109,-0.113 0.079,-0.167C0.048,-0.221 0.033,-0.283 0.033,-0.352C0.033,-0.421 0.048,-0.483 0.079,-0.538C0.109,-0.592 0.151,-0.634 0.205,-0.665C0.259,-0.695 0.321,-0.71 0.39,-0.71C0.474,-0.71 0.545,-0.69 0.603,-0.649C0.66,-0.608 0.698,-0.552 0.717,-0.48L0.528,-0.48Z" style="fill-rule:nonzero;"/>
        </g>
        <g transform="matrix(35.6278,47.0283,-47.0283,35.6278,177.825,418.17)">
            <path d="M0.69,-0L0.519,-0L0.233,-0.433L0.233,-0L0.062,-0L0.062,-0.702L0.233,-0.702L0.519,-0.267L0.519,-0.702L0.69,-0.702L0.69,-0Z" style="fill-rule:nonzero;"/>
        </g>
        <g transform="matrix(42.6035,40.8159,-40.8159,42.6035,205.02,453.262)">
            <path d="M0.233,-0.565L0.233,-0.423L0.462,-0.423L0.462,-0.291L0.233,-0.291L0.233,-0.137L0.492,-0.137L0.492,-0L0.062,-0L0.062,-0.702L0.492,-0.702L0.492,-0.565L0.233,-0.565Z" style="fill-rule:nonzero;"/>
        </g>
        <g transform="matrix(47.9219,34.4165,-34.4165,47.9219,227.927,475.608)">
            <path d="M0.42,-0L0.274,-0.265L0.233,-0.265L0.233,-0L0.062,-0L0.062,-0.702L0.349,-0.702C0.404,-0.702 0.452,-0.692 0.491,-0.673C0.53,-0.654 0.559,-0.627 0.578,-0.594C0.597,-0.56 0.607,-0.522 0.607,-0.481C0.607,-0.434 0.594,-0.393 0.568,-0.356C0.541,-0.319 0.502,-0.293 0.451,-0.278L0.613,-0L0.42,-0ZM0.233,-0.386L0.339,-0.386C0.37,-0.386 0.394,-0.394 0.409,-0.409C0.425,-0.424 0.433,-0.446 0.433,-0.474C0.433,-0.501 0.425,-0.522 0.409,-0.537C0.394,-0.552 0.37,-0.56 0.339,-0.56L0.233,-0.56L0.233,-0.386Z" style="fill-rule:nonzero;"/>
        </g>
        <g transform="matrix(57.8634,11.525,-11.525,57.8634,315.836,525.295)">
            <path d="M1.028,-0.702L0.845,-0L0.638,-0L0.526,-0.462L0.41,-0L0.203,-0L0.025,-0.702L0.208,-0.702L0.309,-0.191L0.434,-0.702L0.622,-0.702L0.742,-0.191L0.844,-0.702L1.028,-0.702Z" style="fill-rule:nonzero;"/>
        </g>
        <g transform="matrix(58.9831,1.41024,-1.41024,58.9831,376.981,536.157)">
            <path d="M0.233,-0.565L0.233,-0.423L0.462,-0.423L0.462,-0.291L0.233,-0.291L0.233,-0.137L0.492,-0.137L0.492,-0L0.062,-0L0.062,-0.702L0.492,-0.702L0.492,-0.565L0.233,-0.565Z" style="fill-rule:nonzero;"/>
        </g>
        <g transform="matrix(58.6746,-6.18824,6.18824,58.6746,409,537.22)">
            <path d="M0.487,-0.36C0.528,-0.351 0.56,-0.331 0.585,-0.3C0.61,-0.268 0.622,-0.232 0.622,-0.191C0.622,-0.132 0.602,-0.086 0.561,-0.051C0.52,-0.017 0.462,-0 0.389,-0L0.062,-0L0.062,-0.702L0.378,-0.702C0.449,-0.702 0.505,-0.686 0.546,-0.653C0.586,-0.62 0.606,-0.576 0.606,-0.52C0.606,-0.479 0.595,-0.444 0.574,-0.417C0.552,-0.39 0.523,-0.371 0.487,-0.36ZM0.233,-0.418L0.345,-0.418C0.373,-0.418 0.395,-0.424 0.409,-0.437C0.425,-0.449 0.432,-0.467 0.432,-0.491C0.432,-0.515 0.425,-0.533 0.409,-0.546C0.395,-0.559 0.373,-0.565 0.345,-0.565L0.233,-0.565L0.233,-0.418ZM0.359,-0.138C0.388,-0.138 0.41,-0.145 0.426,-0.158C0.441,-0.171 0.449,-0.189 0.449,-0.214C0.449,-0.239 0.441,-0.258 0.425,-0.272C0.408,-0.286 0.386,-0.293 0.357,-0.293L0.233,-0.293L0.233,-0.138L0.359,-0.138Z" style="fill-rule:nonzero;"/>
        </g>
        <g transform="matrix(56.3182,-17.5858,17.5858,56.3182,460.035,530.969)">
            <path d="M0.325,-0.702C0.399,-0.702 0.464,-0.687 0.519,-0.658C0.574,-0.629 0.617,-0.588 0.648,-0.535C0.678,-0.482 0.693,-0.42 0.693,-0.351C0.693,-0.282 0.678,-0.221 0.648,-0.168C0.617,-0.115 0.574,-0.073 0.519,-0.044C0.463,-0.015 0.398,-0 0.325,-0L0.062,-0L0.062,-0.702L0.325,-0.702ZM0.314,-0.148C0.379,-0.148 0.429,-0.166 0.465,-0.201C0.501,-0.236 0.519,-0.286 0.519,-0.351C0.519,-0.416 0.501,-0.466 0.465,-0.502C0.429,-0.538 0.379,-0.556 0.314,-0.556L0.233,-0.556L0.233,-0.148L0.314,-0.148Z" style="fill-rule:nonzero;"/>
        </g>
        <g transform="matrix(53.3193,-25.2597,25.2597,53.3193,500.946,517.884)">
            <path d="M0.233,-0.565L0.233,-0.423L0.462,-0.423L0.462,-0.291L0.233,-0.291L0.233,-0.137L0.492,-0.137L0.492,-0L0.062,-0L0.062,-0.702L0.492,-0.702L0.492,-0.565L0.233,-0.565Z" style="fill-rule:nonzero;"/>
        </g>
        <g transform="matrix(49.6051,-31.9426,31.9426,49.6051,529.929,504.338)">
            <path d="M0.316,0.007C0.265,0.007 0.219,-0.001 0.178,-0.018C0.137,-0.035 0.105,-0.059 0.081,-0.092C0.056,-0.125 0.043,-0.164 0.042,-0.21L0.224,-0.21C0.227,-0.184 0.236,-0.164 0.251,-0.151C0.266,-0.137 0.286,-0.13 0.311,-0.13C0.336,-0.13 0.356,-0.136 0.371,-0.148C0.386,-0.159 0.393,-0.175 0.393,-0.196C0.393,-0.213 0.387,-0.228 0.376,-0.239C0.364,-0.25 0.349,-0.26 0.333,-0.267C0.316,-0.274 0.291,-0.283 0.26,-0.292C0.215,-0.306 0.178,-0.32 0.149,-0.334C0.12,-0.348 0.096,-0.369 0.075,-0.396C0.054,-0.423 0.044,-0.459 0.044,-0.503C0.044,-0.568 0.068,-0.62 0.115,-0.657C0.162,-0.694 0.224,-0.712 0.3,-0.712C0.377,-0.712 0.44,-0.694 0.487,-0.657C0.534,-0.62 0.56,-0.568 0.563,-0.502L0.378,-0.502C0.377,-0.525 0.368,-0.543 0.353,-0.556C0.338,-0.569 0.318,-0.575 0.294,-0.575C0.273,-0.575 0.257,-0.57 0.244,-0.559C0.231,-0.548 0.225,-0.532 0.225,-0.511C0.225,-0.488 0.236,-0.471 0.257,-0.458C0.278,-0.445 0.312,-0.432 0.357,-0.417C0.402,-0.402 0.439,-0.387 0.468,-0.373C0.496,-0.359 0.52,-0.339 0.541,-0.312C0.562,-0.285 0.572,-0.251 0.572,-0.209C0.572,-0.169 0.562,-0.133 0.542,-0.1C0.521,-0.067 0.492,-0.041 0.453,-0.022C0.414,-0.003 0.369,0.007 0.316,0.007Z" style="fill-rule:nonzero;"/>
        </g>
        <g transform="matrix(45.9713,-36.9816,36.9816,45.9713,560.148,484.292)">
            <rect x="0.062" y="-0.702" width="0.171" height="0.702" style="fill-rule:nonzero;"/>
        </g>
        <g transform="matrix(40.9874,-42.4386,42.4386,40.9874,574.343,473.985)">
            <path d="M0.528,-0.48C0.515,-0.503 0.497,-0.521 0.473,-0.534C0.45,-0.546 0.422,-0.552 0.39,-0.552C0.335,-0.552 0.29,-0.534 0.257,-0.498C0.224,-0.461 0.207,-0.413 0.207,-0.352C0.207,-0.287 0.225,-0.237 0.26,-0.201C0.295,-0.164 0.343,-0.146 0.404,-0.146C0.446,-0.146 0.482,-0.157 0.51,-0.178C0.54,-0.199 0.561,-0.23 0.574,-0.27L0.357,-0.27L0.357,-0.396L0.729,-0.396L0.729,-0.237C0.716,-0.194 0.695,-0.155 0.665,-0.118C0.634,-0.081 0.596,-0.052 0.549,-0.029C0.502,-0.006 0.45,0.005 0.391,0.005C0.322,0.005 0.26,-0.01 0.205,-0.041C0.151,-0.071 0.109,-0.113 0.079,-0.167C0.048,-0.221 0.033,-0.283 0.033,-0.352C0.033,-0.421 0.048,-0.483 0.079,-0.538C0.109,-0.592 0.151,-0.634 0.205,-0.665C0.259,-0.695 0.321,-0.71 0.39,-0.71C0.474,-0.71 0.545,-0.69 0.603,-0.649C0.66,-0.608 0.698,-0.552 0.717,-0.48L0.528,-0.48Z" style="fill-rule:nonzero;"/>
        </g>
        <g transform="matrix(32.4287,-49.2887,49.2887,32.4287,605.639,441.574)">
            <path d="M0.69,-0L0.519,-0L0.233,-0.433L0.233,-0L0.062,-0L0.062,-0.702L0.233,-0.702L0.519,-0.267L0.519,-0.702L0.69,-0.702L0.69,-0Z" style="fill-rule:nonzero;"/>
        </g>
        <g transform="matrix(23.7485,-54.0093,54.0093,23.7485,629.66,404.201)">
            <path d="M0.233,-0.565L0.233,-0.423L0.462,-0.423L0.462,-0.291L0.233,-0.291L0.233,-0.137L0.492,-0.137L0.492,-0L0.062,-0L0.062,-0.702L0.492,-0.702L0.492,-0.565L0.233,-0.565Z" style="fill-rule:nonzero;"/>
        </g>
        <g transform="matrix(14.8787,-57.0931,57.0931,14.8787,642.878,375.001)">
            <path d="M0.42,-0L0.274,-0.265L0.233,-0.265L0.233,-0L0.062,-0L0.062,-0.702L0.349,-0.702C0.404,-0.702 0.452,-0.692 0.491,-0.673C0.53,-0.654 0.559,-0.627 0.578,-0.594C0.597,-0.56 0.607,-0.522 0.607,-0.481C0.607,-0.434 0.594,-0.393 0.568,-0.356C0.541,-0.319 0.502,-0.293 0.451,-0.278L0.613,-0L0.42,-0ZM0.233,-0.386L0.339,-0.386C0.37,-0.386 0.394,-0.394 0.409,-0.409C0.425,-0.424 0.433,-0.446 0.433,-0.474C0.433,-0.501 0.425,-0.522 0.409,-0.537C0.394,-0.552 0.37,-0.56 0.339,-0.56L0.233,-0.56L0.233,-0.386Z" style="fill-rule:nonzero;"/>
        </g>
        <g transform="matrix(1,2.77556e-17,-2.77556e-17,1,245.826,52.6405)">
            <circle cx="389.523" cy="266.014" r="10.477"/>
        </g>
        <g transform="matrix(1,2.77556e-17,-2.77556e-17,1,-103.003,-156.899)">
            <circle cx="389.523" cy="266.014" r="10.477"/>
        </g>
        <g transform="matrix(1,2.77556e-17,-2.77556e-17,1,-93.5264,226.405)">
            <circle cx="389.523" cy="266.014" r="10.477"/>
        </g>
    </g>
</svg>
